<?xml version="1.0" encoding="utf-8"?>
<!-- Generator: Adobe Illustrator 24.2.1, SVG Export Plug-In . SVG Version: 6.00 Build 0)  -->
<svg version="1.0" id="Layer_1" xmlns="http://www.w3.org/2000/svg" xmlns:xlink="http://www.w3.org/1999/xlink" x="0px" y="0px"
	 viewBox="0 0 63.4 100" style="enable-background:new 0 0 63.4 100;" xml:space="preserve">
<style type="text/css">
	.st0{fill:#187649;}
</style>
<path class="st0" d="M16.5,61.8c-4,0-8,0-11.9,0c-1.9,0-2.8-1.5-1.8-3.2C13,40.6,23.3,22.6,33.6,4.5C34.2,3.5,35.1,3,36,3.3
	c1,0.3,1.6,1.1,1.4,2.4c-0.4,3.5-0.9,7-1.4,10.5c-0.5,4-1.1,8-1.6,12c-0.4,3-0.8,6.1-1.2,9.1c-0.1,0.8-0.1,1.1,0.9,1.1
	c8.1,0,16.2,0,24.2,0c2.1,0,3,1.5,1.9,3.3c-10.1,18-20.2,36-30.3,54c-0.6,1.1-1.5,1.6-2.5,1.3c-1.1-0.3-1.5-1.2-1.4-2.5
	c0.8-7.4,1.5-14.8,2.3-22.3c0.3-3.2,0.7-6.4,1-9.6c0.1-0.7-0.3-0.6-0.7-0.6C24.7,61.8,20.6,61.8,16.5,61.8z"/>
</svg>
