<svg width="28" height="28" viewBox="0 0 12 18" fill="none" xmlns="http://www.w3.org/2000/svg">
<g id="fa-solid:rupee-sign" clip-path="url(#clip0_56_2)">
<path id="Vector" d="M10.8281 3.375C11.0611 3.375 11.25 3.18611 11.25 2.95312V1.54688C11.25 1.31389 11.0611 1.125 10.8281 1.125H0.421875C0.188895 1.125 0 1.31389 0 1.54688V3.12005C0 3.35303 0.188895 3.54192 0.421875 3.54192H3.42C4.38005 3.54192 5.11668 3.89201 5.56348 4.5H0.421875C0.188895 4.5 0 4.68889 0 4.92188V6.32812C0 6.56111 0.188895 6.75 0.421875 6.75H6.00318C5.78461 8.01865 4.84439 8.81128 3.375 8.81128H0.421875C0.188895 8.81128 0 9.00018 0 9.23316V11.0969C0 11.2146 0.0492188 11.327 0.135738 11.4069L5.93835 16.7631C6.01628 16.8351 6.11844 16.875 6.22448 16.875H9.12706C9.5111 16.875 9.69539 16.4036 9.41319 16.1431L4.10875 11.2467C6.79816 11.1644 8.71928 9.36953 8.97149 6.75H10.8281C11.0611 6.75 11.25 6.56111 11.25 6.32812V4.92188C11.25 4.68889 11.0611 4.5 10.8281 4.5H8.7648C8.64225 4.09426 8.47371 3.71791 8.26376 3.375H10.8281Z" fill="black"/>
</g>
<defs>
<clipPath id="clip0_56_2">
<rect width="28" height="28" fill="white"/>
</clipPath>
</defs>
</svg>
